<svg width="1013" height="184" viewBox="0 0 1013 184" fill="none" xmlns="http://www.w3.org/2000/svg">
<g clip-path="url(#clip0_711_1489)">
<path d="M524.269 168.693L498.855 164.498C504.165 132.187 504.735 81.1095 489.371 68.7052C487.739 67.3891 482.78 63.3775 469.042 68.7826C462.494 71.362 456.195 75.5249 450.402 80.6169C460.586 102.462 462.895 132.201 454.259 150.538C448.464 162.844 437.977 169.847 425.4 169.847C425.133 169.847 424.869 169.847 424.598 169.836C407.996 169.449 396.443 159.945 393.684 144.419C390.285 125.283 400.606 99.5734 417.187 78.5618C414.485 76.9571 412.627 77.5272 411.567 77.8545C389.028 84.7657 375.984 138.419 373.059 163.991V164.966H347.301V43.3547H373.059V79.5119C380.914 67.1604 391.02 57.2123 404.016 53.2254C414.917 49.8788 425.949 52.3034 435.176 59.8656C442.89 53.3661 451.177 48.1299 459.608 44.8115C482.495 35.803 497.236 41.9366 505.569 48.6683C537.922 74.8176 526.823 153.234 524.269 168.693ZM431.238 103.363C422.466 117.2 417.557 131.536 419.042 139.911C419.457 142.262 419.759 143.958 425.2 144.085C426.709 144.13 428.786 144.166 430.953 139.563C434.961 131.057 434.62 116.422 431.238 103.363Z" fill="#E97700"/>
<path d="M604.205 44.9801C622.507 44.9801 637.198 50.6245 647.885 61.7514C659.375 73.7229 665.487 91.944 664.671 111.749L664.653 112.16H570.866C572.844 133.373 587.226 147.047 607.621 147.047C620.325 147.047 631.955 141.779 639.531 132.591L639.781 132.285L659.646 146.058L659.311 146.417C646.362 160.532 629.059 167.689 607.878 167.689C568.888 167.689 541.655 142.554 541.655 106.558C541.655 70.5628 566.791 44.9766 604.208 44.9766L604.205 44.9801ZM637.001 96.2371C634.316 77.3368 621.785 65.6187 604.205 65.6187C586.624 65.6187 573.917 77.3368 571.658 96.2371H637.001Z" fill="#E97700"/>
<path d="M803.512 0.461914V165.437H775.656V146.016C766.404 160.004 751.347 167.686 733.09 167.686C699.038 167.686 675.253 142.55 675.253 106.555C675.253 89.2063 680.985 73.5153 691.391 62.3673C701.86 51.1489 716.667 44.9766 733.09 44.9766C751.347 44.9766 766.404 52.6585 775.656 66.6463V0.461914H803.512ZM775.656 106.333C775.656 81.6019 761.523 65.6223 739.65 65.6223C717.776 65.6223 703.904 81.6019 703.904 106.333C703.904 131.064 717.938 147.044 739.65 147.044C761.362 147.044 775.656 131.064 775.656 106.333Z" fill="#E97700"/>
<path d="M886.759 165.381C884.518 165.677 882.332 165.825 880.21 165.825C865.452 165.825 853.685 158.72 846.668 145.383C845.626 143.406 844.711 141.308 843.916 139.127C841.53 142.55 839.007 146.112 836.34 149.831L815.416 134.805C823.935 122.939 832.796 109.684 840.253 97.6487C842.347 77.3971 848.846 58.5567 855.465 51.2162C860.751 45.3465 867.796 43.3935 874.306 46.0011C878.838 47.8098 882.237 51.5997 883.638 56.3925C884.711 60.0839 887.459 69.5112 865.357 106.337C864.829 116.496 865.8 126.546 869.527 133.514C871.976 138.092 875.291 140.921 883.378 139.848L886.756 165.385L886.759 165.381ZM859.206 24.3032C859.206 17.1598 864.998 11.3711 872.141 11.3711C879.285 11.3711 885.077 17.1633 885.077 24.3032C885.077 31.4432 879.285 37.2389 872.141 37.2389C864.998 37.2389 859.206 31.4467 859.206 24.3032Z" fill="#E97700"/>
<path d="M985.145 89.0196V87.6754C985.145 74.2823 972.762 65.6221 953.591 65.6221C939.089 65.6221 927.241 70.6965 919.32 80.3032L919.067 80.6093L918.743 80.3806L899.209 66.611L899.54 66.252C912.43 52.1375 930.792 44.98 954.112 44.98C990.434 44.98 1013 61.1671 1013 87.225V165.444H985.142V151.101C975.588 161.813 960.435 167.693 942.316 167.693C914.826 167.693 897.062 154.729 897.062 134.664C897.062 125.36 900.849 117.087 908.316 110.066C925.918 93.5274 960.379 87.5839 985.142 89.0196H985.145ZM985.145 124.543V102.934C984.663 102.934 984.178 102.927 983.685 102.927C966.234 102.927 942.855 106.776 931.657 117.794C927.54 121.848 925.45 126.535 925.45 131.736C925.45 144.513 938.361 149.067 950.445 149.067C969.905 149.067 985.142 138.292 985.142 124.54L985.145 124.543Z" fill="#E97700"/>
<path d="M56.7237 9.36182C49.5803 9.36182 43.7881 15.154 43.7881 22.2975C43.7881 29.4409 49.5803 35.2296 56.7237 35.2296C63.8672 35.2296 69.6559 29.4409 69.6559 22.2975C69.6559 15.154 63.8672 9.36182 56.7237 9.36182Z" fill="#E97700"/>
<path d="M309.416 139.144C302.273 139.144 296.48 144.936 296.48 152.08C296.48 159.223 302.273 165.012 309.416 165.012C316.56 165.012 322.348 159.223 322.348 152.08C322.348 144.936 316.56 139.144 309.416 139.144Z" fill="#E97700"/>
<path d="M245.357 119.856C250.98 114.522 256.312 108.022 261.259 100.414C278.928 73.2339 289.668 32.9102 277.056 12.4792C271.475 3.43901 261.924 -1.05117 250.847 0.208614C222.048 3.44253 208.753 51.6838 212.955 94.5305C213.475 99.8019 214.243 104.827 215.249 109.578C215.833 112.217 216.421 114.339 217.234 116.774C211.92 124.575 206.536 131.525 201.268 137.416C190.507 149.465 180.26 157.076 172.16 158.452C167.821 159.188 164.263 158.037 160.617 154.715C156.222 150.707 154.192 146.291 154.23 140.819C154.333 125.501 169.612 106.484 179.887 95.9029C182.593 93.6719 184.961 91.3705 186.929 89.041L169.373 71.8579C169.175 72.0304 166.814 74.1277 163.338 77.6501C156.743 82.8511 146.82 87.7777 136.685 90.8884C136.988 85.1173 136.263 79.5222 134.517 74.1699C130.618 62.2266 122.095 54.1048 111.134 51.8914C100.929 49.8293 90.3263 53.4574 83.4714 61.3644C75.772 70.2427 73.9949 82.7456 78.5871 95.6707C82.0639 105.446 89.4009 112.541 99.5847 116.137C92.9057 124.069 84.2421 131.173 75.4201 135.829C72.3199 137.462 69.8918 138.306 68.076 138.697C59.9895 139.774 56.562 136.082 54.1128 131.504C50.3863 124.537 49.415 114.487 49.9429 104.327C72.0489 67.505 69.3006 58.0777 68.2238 54.3864C66.8268 49.59 63.4275 45.8001 58.8951 43.9914C52.3815 41.3803 45.3366 43.3369 40.0511 49.2065C33.4355 56.547 26.936 75.3875 24.8422 95.639C17.382 107.674 8.52133 120.93 0.00195312 132.796L20.9256 147.822C23.593 144.102 26.1161 140.541 28.5019 137.117C29.2937 139.302 30.2121 141.396 31.2537 143.374C38.2705 156.71 50.0344 163.819 64.7928 163.819C66.9148 163.819 69.1 163.671 71.3451 163.375L71.317 163.157C76.2435 162.344 81.4516 160.493 86.9094 157.615C101.453 149.943 115.11 137.761 124.376 124.188C125.776 122.137 127.061 120.075 128.229 118.005C130.643 117.657 132.994 117.214 135.242 116.718C131.547 125.064 129.658 133.045 129.598 140.601C129.499 153.051 134.489 164.227 144.026 172.919C151.546 179.774 160.322 183.3 169.71 183.3C171.867 183.3 174.063 183.113 176.28 182.737C195.877 179.411 214.376 161.545 228.903 142.673C238.96 156.837 253.081 164.649 269.99 164.646C271.559 164.646 273.15 164.575 274.769 164.441L272.611 138.771C258.606 139.925 250.294 130.86 245.357 119.856ZM111.503 93.8268C111.303 93.7951 111.109 93.7634 110.912 93.7247C103.565 92.3875 102.326 88.9072 101.798 87.4187C100.26 83.0975 100.366 79.4835 102.083 77.5023C102.935 76.5206 104.195 75.954 105.451 75.954C105.718 75.954 105.989 75.9822 106.253 76.0349C109.012 76.5909 110.472 79.8917 111.099 81.8095C112.394 85.7824 112.32 89.9031 111.503 93.8268ZM253.718 25.8055C254.499 25.721 254.911 25.7703 254.953 25.7386C257.959 28.8142 258.761 48.5906 246.68 73.8215C244.361 78.6601 241.525 83.6499 238.277 88.3548C235.793 53.2779 247.549 26.4987 253.718 25.8055Z" fill="#E97700"/>
</g>
<defs>
<clipPath id="clip0_711_1489">
<rect width="1013" height="183.3" fill="white"/>
</clipPath>
</defs>
</svg>
